<?xml version="1.0" encoding="UTF-8"?>
<svg xmlns="http://www.w3.org/2000/svg" viewBox="0 0 480 480" fill="none" aria-hidden="true">
  <defs>
    <radialGradient id="darkSphere" cx="38%" cy="32%" r="65%">
      <stop offset="0%" stop-color="#1E3A44"/>
      <stop offset="55%" stop-color="#0F1E24"/>
      <stop offset="100%" stop-color="#060D10"/>
    </radialGradient>
    <radialGradient id="darkAtmo" cx="50%" cy="50%" r="50%">
      <stop offset="72%" stop-color="transparent"/>
      <stop offset="88%" stop-color="#348398" stop-opacity="0.35"/>
      <stop offset="100%" stop-color="#ADFFFC" stop-opacity="0.12"/>
    </radialGradient>
    <radialGradient id="darkGlow" cx="50%" cy="50%" r="50%">
      <stop offset="0%" stop-color="#348398" stop-opacity="0.22"/>
      <stop offset="100%" stop-color="transparent"/>
    </radialGradient>
    <filter id="darkBloom"><feGaussianBlur stdDeviation="6"/></filter>
  </defs>
  <circle cx="240" cy="240" r="200" fill="url(#darkGlow)" opacity="0.6"/>
  <g class="earth-rotate" style="transform-origin:240px 240px">
    <circle cx="240" cy="240" r="148" fill="url(#darkSphere)"/>
    <circle cx="240" cy="240" r="148" fill="url(#darkAtmo)"/>
    <ellipse cx="240" cy="240" rx="148" ry="48" stroke="#348398" stroke-width="0.8" opacity="0.35"/>
    <ellipse cx="240" cy="240" rx="148" ry="88" stroke="#348398" stroke-width="0.6" opacity="0.28"/>
    <ellipse cx="240" cy="240" rx="148" ry="128" stroke="#348398" stroke-width="0.5" opacity="0.2"/>
    <ellipse cx="240" cy="240" rx="48" ry="148" stroke="#348398" stroke-width="0.6" opacity="0.25"/>
    <ellipse cx="240" cy="240" rx="88" ry="148" stroke="#348398" stroke-width="0.5" opacity="0.2"/>
    <ellipse cx="240" cy="240" rx="128" ry="148" stroke="#348398" stroke-width="0.4" opacity="0.15"/>
    <path d="M120 200 Q170 160 230 175 T340 190 Q310 230 250 245 T130 260 Z" fill="#348398" opacity="0.18"/>
    <path d="M150 290 Q210 270 280 285 T360 300 Q320 330 240 335 T140 310 Z" fill="#5FB2C4" opacity="0.14"/>
    <circle cx="185" cy="195" r="2.5" fill="#ADFFFC" opacity="0.9"/>
    <circle cx="265" cy="175" r="2" fill="#ADFFFC" opacity="0.75"/>
    <circle cx="310" cy="230" r="2.5" fill="#ADFFFC" opacity="0.85"/>
    <circle cx="220" cy="285" r="2" fill="#ADFFFC" opacity="0.7"/>
    <circle cx="170" cy="250" r="1.8" fill="#ADFFFC" opacity="0.65"/>
    <path d="M185 195 Q230 160 310 230" stroke="#ADFFFC" stroke-width="1" opacity="0.35" stroke-dasharray="6 8"/>
    <path d="M170 250 Q240 200 265 175" stroke="#348398" stroke-width="0.8" opacity="0.3" stroke-dasharray="5 7"/>
    <path d="M220 285 Q280 250 360 300" stroke="#973336" stroke-width="0.8" opacity="0.25" stroke-dasharray="5 7"/>
  </g>
</svg>
