<svg xmlns="http://www.w3.org/2000/svg" viewBox="0 0 1000 1000" fill="none">
  <defs>
    <radialGradient id="glow" cx="50%" cy="45%" r="55%">
      <stop offset="0%" stop-color="#348398" stop-opacity="0.18"/>
      <stop offset="55%" stop-color="#9FE1F3" stop-opacity="0.06"/>
      <stop offset="100%" stop-color="#348398" stop-opacity="0"/>
    </radialGradient>
    <clipPath id="sphereClip">
      <circle cx="500" cy="500" r="420"/>
    </clipPath>
  </defs>
  <circle cx="500" cy="500" r="428" fill="url(#glow)"/>
  <g clip-path="url(#sphereClip)">
  <circle cx="500" cy="500" r="420" stroke="#348398" stroke-opacity="0.2" stroke-width="1.2" fill="none"/>
  <ellipse cx="500" cy="757.6" rx="420" ry="210.0" stroke="#9FE1F3" stroke-opacity="0.32" stroke-width="1" fill="none"/>
  <ellipse cx="500" cy="628.8" rx="420" ry="363.7" stroke="#9FE1F3" stroke-opacity="0.22" stroke-width="1" fill="none"/>
  <ellipse cx="500" cy="500.0" rx="420" ry="420.0" stroke="#9FE1F3" stroke-opacity="0.38" stroke-width="1.8" fill="none"/>
  <ellipse cx="500" cy="371.2" rx="420" ry="363.7" stroke="#9FE1F3" stroke-opacity="0.22" stroke-width="1" fill="none"/>
  <ellipse cx="500" cy="242.4" rx="420" ry="210.0" stroke="#9FE1F3" stroke-opacity="0.32" stroke-width="1" fill="none"/>
  <ellipse cx="500" cy="500" rx="92.4" ry="420" transform="rotate(0 500 500)" stroke="#348398" stroke-opacity="0.10" stroke-width="1" fill="none"/>
  <ellipse cx="500" cy="500" rx="92.4" ry="420" transform="rotate(15 500 500)" stroke="#348398" stroke-opacity="0.13" stroke-width="1" fill="none"/>
  <ellipse cx="500" cy="500" rx="92.4" ry="420" transform="rotate(30 500 500)" stroke="#348398" stroke-opacity="0.16" stroke-width="1" fill="none"/>
  <ellipse cx="500" cy="500" rx="92.4" ry="420" transform="rotate(45 500 500)" stroke="#348398" stroke-opacity="0.10" stroke-width="1" fill="none"/>
  <ellipse cx="500" cy="500" rx="92.4" ry="420" transform="rotate(60 500 500)" stroke="#348398" stroke-opacity="0.13" stroke-width="1" fill="none"/>
  <ellipse cx="500" cy="500" rx="92.4" ry="420" transform="rotate(75 500 500)" stroke="#348398" stroke-opacity="0.16" stroke-width="1" fill="none"/>
  <ellipse cx="500" cy="500" rx="92.4" ry="420" transform="rotate(90 500 500)" stroke="#348398" stroke-opacity="0.10" stroke-width="1" fill="none"/>
  <ellipse cx="500" cy="500" rx="92.4" ry="420" transform="rotate(105 500 500)" stroke="#348398" stroke-opacity="0.13" stroke-width="1" fill="none"/>
  <ellipse cx="500" cy="500" rx="92.4" ry="420" transform="rotate(120 500 500)" stroke="#348398" stroke-opacity="0.16" stroke-width="1" fill="none"/>
  <ellipse cx="500" cy="500" rx="92.4" ry="420" transform="rotate(135 500 500)" stroke="#348398" stroke-opacity="0.10" stroke-width="1" fill="none"/>
  <ellipse cx="500" cy="500" rx="92.4" ry="420" transform="rotate(150 500 500)" stroke="#348398" stroke-opacity="0.13" stroke-width="1" fill="none"/>
  <ellipse cx="500" cy="500" rx="92.4" ry="420" transform="rotate(165 500 500)" stroke="#348398" stroke-opacity="0.16" stroke-width="1" fill="none"/>
  <circle cx="295" cy="370" r="6" fill="#348398" fill-opacity="0.12"/><circle cx="295" cy="370" r="3" fill="#9FE1F3"/>
  <circle cx="495" cy="320" r="6" fill="#348398" fill-opacity="0.12"/><circle cx="495" cy="320" r="3" fill="#9FE1F3"/>
  <circle cx="595" cy="380" r="6" fill="#348398" fill-opacity="0.12"/><circle cx="595" cy="380" r="3" fill="#9FE1F3"/>
  <circle cx="680" cy="470" r="6" fill="#348398" fill-opacity="0.12"/><circle cx="680" cy="470" r="3" fill="#9FE1F3"/>
  <circle cx="740" cy="340" r="6" fill="#348398" fill-opacity="0.12"/><circle cx="740" cy="340" r="3" fill="#9FE1F3"/>
  <circle cx="780" cy="560" r="6" fill="#348398" fill-opacity="0.12"/><circle cx="780" cy="560" r="3" fill="#9FE1F3"/>
  </g>
</svg>