<svg xmlns="http://www.w3.org/2000/svg" viewBox="0 0 1000 1000" fill="none">
  <g><circle cx="240" cy="560" r="0.40" fill="#ADFFFC" fill-opacity="0.25"/>
  <circle cx="599" cy="797" r="0.51" fill="#9FE1F3" fill-opacity="0.25"/>
  <circle cx="477" cy="431" r="0.74" fill="#ADFFFC" fill-opacity="0.25"/>
  <circle cx="836" cy="668" r="0.86" fill="#9FE1F3" fill-opacity="0.25"/>
  <circle cx="714" cy="302" r="0.48" fill="#ADFFFC" fill-opacity="0.25"/>
  <circle cx="233" cy="539" r="0.60" fill="#9FE1F3" fill-opacity="0.25"/>
  <circle cx="592" cy="776" r="0.71" fill="#9FE1F3" fill-opacity="0.25"/>
  <circle cx="470" cy="410" r="0.94" fill="#9FE1F3" fill-opacity="0.25"/>
  <circle cx="829" cy="647" r="0.45" fill="#9FE1F3" fill-opacity="0.25"/>
  <circle cx="348" cy="884" r="0.57" fill="#ADFFFC" fill-opacity="0.25"/>
  <circle cx="707" cy="281" r="0.68" fill="#9FE1F3" fill-opacity="0.25"/>
  <circle cx="226" cy="518" r="0.80" fill="#9FE1F3" fill-opacity="0.25"/>
  <circle cx="585" cy="755" r="0.91" fill="#ADFFFC" fill-opacity="0.25"/>
  <circle cx="463" cy="389" r="0.54" fill="#9FE1F3" fill-opacity="0.25"/>
  <circle cx="822" cy="626" r="0.65" fill="#ADFFFC" fill-opacity="0.25"/>
  <circle cx="341" cy="863" r="0.77" fill="#9FE1F3" fill-opacity="0.25"/>
  <circle cx="700" cy="260" r="0.88" fill="#9FE1F3" fill-opacity="0.25"/>
  <circle cx="219" cy="497" r="0.99" fill="#ADFFFC" fill-opacity="0.25"/>
  <circle cx="578" cy="734" r="0.51" fill="#9FE1F3" fill-opacity="0.25"/>
  <circle cx="456" cy="368" r="0.74" fill="#ADFFFC" fill-opacity="0.25"/>
  <circle cx="815" cy="605" r="0.85" fill="#9FE1F3" fill-opacity="0.25"/>
  <circle cx="334" cy="842" r="0.96" fill="#9FE1F3" fill-opacity="0.25"/>
  <circle cx="693" cy="239" r="0.48" fill="#ADFFFC" fill-opacity="0.25"/>
  <circle cx="212" cy="476" r="0.59" fill="#9FE1F3" fill-opacity="0.25"/>
  <circle cx="571" cy="713" r="0.71" fill="#9FE1F3" fill-opacity="0.25"/>
  <circle cx="449" cy="347" r="0.93" fill="#9FE1F3" fill-opacity="0.25"/>
  <circle cx="808" cy="584" r="0.45" fill="#9FE1F3" fill-opacity="0.25"/>
  <circle cx="327" cy="821" r="0.56" fill="#ADFFFC" fill-opacity="0.25"/>
  <circle cx="686" cy="218" r="0.68" fill="#9FE1F3" fill-opacity="0.25"/>
  <circle cx="205" cy="455" r="0.79" fill="#9FE1F3" fill-opacity="0.25"/>
  <circle cx="564" cy="692" r="0.90" fill="#ADFFFC" fill-opacity="0.25"/>
  <circle cx="442" cy="326" r="0.53" fill="#9FE1F3" fill-opacity="0.25"/>
  <circle cx="801" cy="563" r="0.65" fill="#ADFFFC" fill-opacity="0.25"/>
  <circle cx="320" cy="800" r="0.76" fill="#9FE1F3" fill-opacity="0.25"/>
  <circle cx="679" cy="197" r="0.87" fill="#9FE1F3" fill-opacity="0.25"/>
  <circle cx="198" cy="434" r="0.99" fill="#ADFFFC" fill-opacity="0.25"/>
  <circle cx="557" cy="671" r="0.50" fill="#9FE1F3" fill-opacity="0.25"/>
  <circle cx="435" cy="305" r="0.73" fill="#ADFFFC" fill-opacity="0.25"/>
  <circle cx="794" cy="542" r="0.84" fill="#9FE1F3" fill-opacity="0.25"/>
  <circle cx="313" cy="779" r="0.96" fill="#9FE1F3" fill-opacity="0.25"/>
  <circle cx="672" cy="176" r="0.47" fill="#ADFFFC" fill-opacity="0.25"/>
  <circle cx="191" cy="413" r="0.59" fill="#9FE1F3" fill-opacity="0.25"/>
  <circle cx="550" cy="650" r="0.70" fill="#9FE1F3" fill-opacity="0.25"/>
  <circle cx="428" cy="284" r="0.93" fill="#9FE1F3" fill-opacity="0.25"/>
  <circle cx="787" cy="521" r="0.44" fill="#9FE1F3" fill-opacity="0.25"/>
  <circle cx="306" cy="758" r="0.56" fill="#ADFFFC" fill-opacity="0.25"/>
  <circle cx="665" cy="155" r="0.67" fill="#9FE1F3" fill-opacity="0.25"/>
  <circle cx="184" cy="392" r="0.78" fill="#9FE1F3" fill-opacity="0.25"/>
  <circle cx="543" cy="629" r="0.90" fill="#ADFFFC" fill-opacity="0.25"/>
  <circle cx="421" cy="263" r="0.53" fill="#9FE1F3" fill-opacity="0.25"/>
  <circle cx="780" cy="500" r="0.64" fill="#ADFFFC" fill-opacity="0.25"/>
  <circle cx="299" cy="737" r="0.75" fill="#9FE1F3" fill-opacity="0.25"/>
  <circle cx="658" cy="134" r="0.87" fill="#9FE1F3" fill-opacity="0.25"/>
  <circle cx="177" cy="371" r="0.98" fill="#ADFFFC" fill-opacity="0.25"/>
  <circle cx="536" cy="608" r="0.50" fill="#9FE1F3" fill-opacity="0.25"/>
  <circle cx="414" cy="242" r="0.72" fill="#ADFFFC" fill-opacity="0.25"/>
  <circle cx="773" cy="479" r="0.84" fill="#9FE1F3" fill-opacity="0.25"/>
  <circle cx="292" cy="716" r="0.95" fill="#9FE1F3" fill-opacity="0.25"/>
  <circle cx="651" cy="113" r="0.47" fill="#ADFFFC" fill-opacity="0.25"/>
  <circle cx="170" cy="350" r="0.58" fill="#9FE1F3" fill-opacity="0.25"/>
  <circle cx="529" cy="587" r="0.69" fill="#9FE1F3" fill-opacity="0.25"/>
  <circle cx="407" cy="221" r="0.92" fill="#9FE1F3" fill-opacity="0.25"/>
  <circle cx="766" cy="458" r="0.44" fill="#9FE1F3" fill-opacity="0.25"/>
  <circle cx="285" cy="695" r="0.55" fill="#ADFFFC" fill-opacity="0.25"/>
  <circle cx="163" cy="329" r="0.78" fill="#9FE1F3" fill-opacity="0.25"/>
  <circle cx="522" cy="566" r="0.89" fill="#ADFFFC" fill-opacity="0.25"/>
  <circle cx="719" cy="317" r="0.95" fill="#9FE1F3" fill-opacity="0.4"/>
  <circle cx="238" cy="554" r="1.10" fill="#9FE1F3" fill-opacity="0.4"/>
  <circle cx="597" cy="791" r="1.26" fill="#ADFFFC" fill-opacity="0.4"/>
  <circle cx="475" cy="425" r="1.56" fill="#9FE1F3" fill-opacity="0.4"/>
  <circle cx="834" cy="662" r="0.91" fill="#ADFFFC" fill-opacity="0.4"/>
  <circle cx="712" cy="296" r="1.22" fill="#9FE1F3" fill-opacity="0.4"/>
  <circle cx="231" cy="533" r="1.37" fill="#ADFFFC" fill-opacity="0.4"/>
  <circle cx="590" cy="770" r="1.52" fill="#9FE1F3" fill-opacity="0.4"/>
  <circle cx="468" cy="404" r="1.02" fill="#ADFFFC" fill-opacity="0.4"/>
  <circle cx="827" cy="641" r="1.18" fill="#9FE1F3" fill-opacity="0.4"/>
  <circle cx="346" cy="878" r="1.33" fill="#9FE1F3" fill-opacity="0.4"/>
  <circle cx="705" cy="275" r="1.48" fill="#ADFFFC" fill-opacity="0.4"/>
  <circle cx="224" cy="512" r="0.83" fill="#9FE1F3" fill-opacity="0.4"/>
  <circle cx="583" cy="749" r="0.98" fill="#9FE1F3" fill-opacity="0.4"/>
  <circle cx="461" cy="383" r="1.29" fill="#9FE1F3" fill-opacity="0.4"/>
  <circle cx="820" cy="620" r="1.44" fill="#9FE1F3" fill-opacity="0.4"/>
  <circle cx="339" cy="857" r="1.59" fill="#ADFFFC" fill-opacity="0.4"/>
  <circle cx="698" cy="254" r="0.94" fill="#9FE1F3" fill-opacity="0.4"/>
  <circle cx="217" cy="491" r="1.10" fill="#9FE1F3" fill-opacity="0.4"/>
  <circle cx="576" cy="728" r="1.25" fill="#ADFFFC" fill-opacity="0.4"/>
  <circle cx="454" cy="362" r="1.55" fill="#9FE1F3" fill-opacity="0.4"/>
  <circle cx="813" cy="599" r="0.90" fill="#ADFFFC" fill-opacity="0.4"/>
  <circle cx="332" cy="836" r="1.06" fill="#9FE1F3" fill-opacity="0.4"/>
  <circle cx="691" cy="233" r="1.21" fill="#9FE1F3" fill-opacity="0.4"/>
  <circle cx="210" cy="470" r="1.36" fill="#ADFFFC" fill-opacity="0.4"/>
  <circle cx="569" cy="707" r="1.51" fill="#9FE1F3" fill-opacity="0.4"/>
  <circle cx="447" cy="341" r="1.02" fill="#ADFFFC" fill-opacity="0.4"/>
  <circle cx="806" cy="578" r="1.17" fill="#9FE1F3" fill-opacity="0.4"/>
  <circle cx="325" cy="815" r="1.32" fill="#9FE1F3" fill-opacity="0.4"/>
  <circle cx="684" cy="212" r="1.47" fill="#ADFFFC" fill-opacity="0.4"/>
  <circle cx="203" cy="449" r="0.82" fill="#9FE1F3" fill-opacity="0.4"/>
  <circle cx="562" cy="686" r="0.98" fill="#9FE1F3" fill-opacity="0.4"/>
  <circle cx="440" cy="320" r="1.28" fill="#9FE1F3" fill-opacity="0.4"/>
  <circle cx="799" cy="557" r="1.43" fill="#9FE1F3" fill-opacity="0.4"/>
  <circle cx="318" cy="794" r="1.58" fill="#ADFFFC" fill-opacity="0.4"/>
  <circle cx="677" cy="191" r="0.94" fill="#9FE1F3" fill-opacity="0.4"/>
  <circle cx="196" cy="428" r="1.09" fill="#9FE1F3" fill-opacity="0.4"/>
  <circle cx="480" cy="440" r="2.00" fill="#ADFFFC" fill-opacity="0.35"/>
  <circle cx="839" cy="677" r="2.38" fill="#9FE1F3" fill-opacity="0.35"/>
  <circle cx="717" cy="311" r="3.14" fill="#ADFFFC" fill-opacity="0.35"/>
  <circle cx="236" cy="548" r="3.52" fill="#9FE1F3" fill-opacity="0.35"/>
  <circle cx="595" cy="785" r="3.90" fill="#9FE1F3" fill-opacity="0.35"/>
  <circle cx="473" cy="419" r="2.66" fill="#9FE1F3" fill-opacity="0.35"/>
  <circle cx="832" cy="656" r="3.04" fill="#9FE1F3" fill-opacity="0.35"/>
  <circle cx="710" cy="290" r="3.80" fill="#9FE1F3" fill-opacity="0.35"/>
  <circle cx="229" cy="527" r="2.18" fill="#9FE1F3" fill-opacity="0.35"/>
  <circle cx="588" cy="764" r="2.56" fill="#ADFFFC" fill-opacity="0.35"/>
  <circle cx="466" cy="398" r="3.32" fill="#9FE1F3" fill-opacity="0.35"/>
  <circle cx="825" cy="635" r="3.70" fill="#ADFFFC" fill-opacity="0.35"/>
  <circle cx="344" cy="872" r="2.08" fill="#9FE1F3" fill-opacity="0.35"/>
  <circle cx="703" cy="269" r="2.46" fill="#9FE1F3" fill-opacity="0.35"/>
  <circle cx="80" cy="80" r="0.5" fill="#9FE1F3" fill-opacity="0.2"/>
  <circle cx="291" cy="502" r="0.8" fill="#9FE1F3" fill-opacity="0.2"/>
  <circle cx="502" cy="84" r="1.1" fill="#9FE1F3" fill-opacity="0.2"/>
  <circle cx="713" cy="506" r="0.5" fill="#9FE1F3" fill-opacity="0.2"/>
  <circle cx="84" cy="88" r="0.8" fill="#9FE1F3" fill-opacity="0.2"/>
  <circle cx="295" cy="510" r="1.1" fill="#9FE1F3" fill-opacity="0.2"/>
  <circle cx="506" cy="92" r="0.5" fill="#9FE1F3" fill-opacity="0.2"/>
  <circle cx="717" cy="514" r="0.8" fill="#9FE1F3" fill-opacity="0.2"/>
  <circle cx="88" cy="96" r="1.1" fill="#9FE1F3" fill-opacity="0.2"/>
  <circle cx="299" cy="518" r="0.5" fill="#9FE1F3" fill-opacity="0.2"/>
  <circle cx="510" cy="100" r="0.8" fill="#9FE1F3" fill-opacity="0.2"/>
  <circle cx="721" cy="522" r="1.1" fill="#9FE1F3" fill-opacity="0.2"/>
  <circle cx="92" cy="104" r="0.5" fill="#9FE1F3" fill-opacity="0.2"/>
  <circle cx="303" cy="526" r="0.8" fill="#9FE1F3" fill-opacity="0.2"/>
  <circle cx="514" cy="108" r="1.1" fill="#9FE1F3" fill-opacity="0.2"/>
  <circle cx="725" cy="530" r="0.5" fill="#9FE1F3" fill-opacity="0.2"/>
  <circle cx="96" cy="112" r="0.8" fill="#9FE1F3" fill-opacity="0.2"/>
  <circle cx="307" cy="534" r="1.1" fill="#9FE1F3" fill-opacity="0.2"/>
  <circle cx="518" cy="116" r="0.5" fill="#9FE1F3" fill-opacity="0.2"/>
  <circle cx="729" cy="538" r="0.8" fill="#9FE1F3" fill-opacity="0.2"/>
  <circle cx="100" cy="120" r="1.1" fill="#9FE1F3" fill-opacity="0.2"/>
  <circle cx="311" cy="542" r="0.5" fill="#9FE1F3" fill-opacity="0.2"/>
  <circle cx="522" cy="124" r="0.8" fill="#9FE1F3" fill-opacity="0.2"/>
  <circle cx="733" cy="546" r="1.1" fill="#9FE1F3" fill-opacity="0.2"/>
  <circle cx="104" cy="128" r="0.5" fill="#9FE1F3" fill-opacity="0.2"/>
  <circle cx="315" cy="550" r="0.8" fill="#9FE1F3" fill-opacity="0.2"/>
  <circle cx="526" cy="132" r="1.1" fill="#9FE1F3" fill-opacity="0.2"/>
  <circle cx="737" cy="554" r="0.5" fill="#9FE1F3" fill-opacity="0.2"/>
  <circle cx="108" cy="136" r="0.8" fill="#9FE1F3" fill-opacity="0.2"/>
  <circle cx="319" cy="558" r="1.1" fill="#9FE1F3" fill-opacity="0.2"/>
  <circle cx="530" cy="140" r="0.5" fill="#9FE1F3" fill-opacity="0.2"/>
  <circle cx="741" cy="562" r="0.8" fill="#9FE1F3" fill-opacity="0.2"/>
  <circle cx="112" cy="144" r="1.1" fill="#9FE1F3" fill-opacity="0.2"/>
  <circle cx="323" cy="566" r="0.5" fill="#9FE1F3" fill-opacity="0.2"/>
  <circle cx="534" cy="148" r="0.8" fill="#9FE1F3" fill-opacity="0.2"/></g>
</svg>